<svg width="20" height="10" viewBox="0 0 20 10" fill="none" xmlns="http://www.w3.org/2000/svg">
<path d="M14.1666 6.66668H10.5491C10.156 7.7787 9.38235 8.71593 8.365 9.31273C7.34764 9.90952 6.15207 10.1275 4.98957 9.928C3.82708 9.72855 2.77252 9.12456 2.01229 8.22278C1.25205 7.32099 0.835083 6.17949 0.835083 5.00001C0.835083 3.82053 1.25205 2.67902 2.01229 1.77724C2.77252 0.875462 3.82708 0.27147 4.98957 0.0720175C6.15207 -0.127435 7.34764 0.0904959 8.365 0.687291C9.38235 1.28409 10.156 2.22132 10.5491 3.33334H19.1666V6.66668H17.5V10H14.1666V6.66668ZM5.8333 6.66668C6.27532 6.66668 6.69925 6.49108 7.01181 6.17852C7.32437 5.86596 7.49996 5.44204 7.49996 5.00001C7.49996 4.55798 7.32437 4.13406 7.01181 3.8215C6.69925 3.50894 6.27532 3.33334 5.8333 3.33334C5.39127 3.33334 4.96734 3.50894 4.65478 3.8215C4.34222 4.13406 4.16663 4.55798 4.16663 5.00001C4.16663 5.44204 4.34222 5.86596 4.65478 6.17852C4.96734 6.49108 5.39127 6.66668 5.8333 6.66668Z" fill="#4F4F4F"/>
</svg>
