<svg width="18" height="18" viewBox="0 0 18 18" fill="none" xmlns="http://www.w3.org/2000/svg">
<path d="M8.80998 10.9932C9.32457 10.9932 9.81809 10.7888 10.182 10.4249C10.5458 10.0611 10.7502 9.56754 10.7502 9.05295C10.7502 8.99613 10.7476 8.93983 10.7428 8.88422L8.64125 10.9858C8.69686 10.9906 8.75299 10.9932 8.80998 10.9932ZM15.2323 3.05129L14.4922 2.31191C14.4662 2.28594 14.431 2.27135 14.3942 2.27135C14.3575 2.27135 14.3222 2.28594 14.2963 2.31191L12.4024 4.20627C11.3577 3.67235 10.1833 3.40539 8.87928 3.40539C5.54964 3.40539 3.06541 5.1395 1.42657 8.60773C1.3607 8.74721 1.32654 8.89956 1.32654 9.05382C1.32654 9.20807 1.3607 9.36042 1.42657 9.4999C2.08141 10.8792 2.86994 11.9848 3.79214 12.8165L1.95946 14.6485C1.93348 14.6745 1.91889 14.7098 1.91889 14.7465C1.91889 14.7832 1.93348 14.8185 1.95946 14.8445L2.69901 15.584C2.725 15.61 2.76023 15.6246 2.79697 15.6246C2.83372 15.6246 2.86895 15.61 2.89494 15.584L15.2323 3.2474C15.2451 3.23453 15.2554 3.21924 15.2623 3.20242C15.2693 3.18559 15.2729 3.16756 15.2729 3.14934C15.2729 3.13113 15.2693 3.1131 15.2623 3.09627C15.2554 3.07945 15.2451 3.06416 15.2323 3.05129ZM5.76099 9.05295C5.76094 8.52632 5.8973 8.00865 6.15678 7.55038C6.41627 7.09211 6.79002 6.70886 7.24164 6.43797C7.69327 6.16708 8.20735 6.01779 8.73382 6.00463C9.26029 5.99148 9.78119 6.11491 10.2458 6.36291L9.40349 7.20519C9.06381 7.09643 8.70073 7.08333 8.35409 7.16733C8.00745 7.25134 7.69064 7.4292 7.43844 7.68141C7.18623 7.93361 7.00837 8.25042 6.92436 8.59706C6.84036 8.9437 6.85346 9.30678 6.96222 9.64646L6.11994 10.4887C5.88357 10.0471 5.76025 9.55385 5.76099 9.05295Z" fill="#0B4654" fill-opacity="0.24"/>
<path d="M16.3322 8.606C15.7224 7.32173 14.9966 6.27451 14.1548 5.46433L11.6578 7.96156C11.8682 8.51179 11.9149 9.1112 11.7921 9.68737C11.6693 10.2635 11.3822 10.7918 10.9657 11.2084C10.5491 11.625 10.0208 11.912 9.44465 12.0348C8.86848 12.1576 8.26907 12.111 7.71884 11.9005L5.60083 14.0185C6.58344 14.4732 7.67634 14.7005 8.87953 14.7005C12.2092 14.7005 14.6934 12.9664 16.3322 9.49818C16.3981 9.3587 16.4323 9.20635 16.4323 9.05209C16.4323 8.89783 16.3981 8.74549 16.3322 8.606Z" fill="#0B4654" fill-opacity="0.24"/>
</svg>
