<svg width="12" height="13" viewBox="0 0 12 13" fill="none" xmlns="http://www.w3.org/2000/svg">
<g clip-path="url(#clip0_105_148)">
<path d="M12 6.73251C12 3.39801 9.31355 0.695007 6.00005 0.695007C2.68505 0.695757 -0.0014534 3.39801 -0.0014534 6.73326C-0.0014534 9.74601 2.19305 12.2435 5.06105 12.6965V8.47776H3.53855V6.73326H5.06255V5.40201C5.06255 3.88926 5.9588 3.05376 7.32905 3.05376C7.98605 3.05376 8.6723 3.17151 8.6723 3.17151V4.65651H7.91555C7.1708 4.65651 6.9383 5.12226 6.9383 5.60001V6.73251H8.6018L8.3363 8.47701H6.93755V12.6958C9.80555 12.2428 12 9.74526 12 6.73251Z" fill="#699BF7"/>
</g>
<defs>
<clipPath id="clip0_105_148">
<rect width="12" height="12" fill="white" transform="translate(1.90735e-06 0.69577)"/>
</clipPath>
</defs>
</svg>
