<svg width="479" height="247" viewBox="0 0 479 247" fill="none" xmlns="http://www.w3.org/2000/svg">
<path d="M116.672 87.0503L115.946 102.542L106.569 104.106L115.809 104.998L116.946 122.53L118.104 105.216L127.265 104.106L118.065 102.759L116.672 87.0503Z" fill="#0B4654"/>
<path d="M469.27 70.0499L468.652 83.2708L460.622 84.6103L468.536 85.3675L469.501 100.355L470.505 85.5616L478.361 84.6103L470.466 83.4649L469.27 70.0499Z" fill="#0B4654"/>
<path d="M14.6418 45.658L13.6168 67.4731L0.258642 69.6834L13.4245 70.9327L15.0262 95.6628L16.692 71.253L29.6978 69.6834L16.6279 67.7934L14.6418 45.658Z" fill="#0B4654"/>
<path d="M116.046 222.157L115.533 232.888L108.966 233.977L115.437 234.586L116.206 246.727L117.039 234.746L123.445 233.977L117.007 233.048L116.046 222.157Z" fill="#0B4654"/>
<path d="M203.124 0.569885L202.367 16.7065L192.31 18.3367L202.219 19.2653L203.419 37.5274L204.681 19.4923L214.485 18.3367L204.618 16.9335L203.124 0.569885Z" fill="#0B4654"/>
</svg>
