<svg width="19" height="18" viewBox="0 0 19 18" fill="none" xmlns="http://www.w3.org/2000/svg">
<path d="M9.48037 1.49257C5.40026 1.49257 2.08887 4.80395 2.08887 8.88406C2.08887 12.9642 5.40026 16.2756 9.48037 16.2756H13.1761V14.7973H9.48037C6.27246 14.7973 3.56717 12.092 3.56717 8.88406C3.56717 5.67615 6.27246 2.97086 9.48037 2.97086C12.6883 2.97086 15.3936 5.67615 15.3936 8.88406V9.94104C15.3936 10.525 14.8688 11.1015 14.2848 11.1015C13.7009 11.1015 13.1761 10.525 13.1761 9.94104V8.88406C13.1761 6.84401 11.5204 5.18831 9.48037 5.18831C7.44032 5.18831 5.78462 6.84401 5.78462 8.88406C5.78462 10.9241 7.44032 12.5798 9.48037 12.5798C10.5004 12.5798 11.4317 12.1659 12.097 11.4933C12.5774 12.1511 13.4053 12.5798 14.2848 12.5798C15.741 12.5798 16.8719 11.3972 16.8719 9.94104V8.88406C16.8719 4.80395 13.5605 1.49257 9.48037 1.49257ZM9.48037 11.1015C8.25338 11.1015 7.26292 10.111 7.26292 8.88406C7.26292 7.65707 8.25338 6.66661 9.48037 6.66661C10.7074 6.66661 11.6978 7.65707 11.6978 8.88406C11.6978 10.111 10.7074 11.1015 9.48037 11.1015Z" fill="#0B4654" fill-opacity="0.5"/>
</svg>
