<svg width="19" height="19" viewBox="0 0 19 19" fill="none" xmlns="http://www.w3.org/2000/svg">
<path d="M13.9159 6.83549H15.3942C15.5902 6.83549 15.7782 6.91337 15.9168 7.05198C16.0554 7.1906 16.1333 7.37861 16.1333 7.57464V16.4444C16.1333 16.6405 16.0554 16.8285 15.9168 16.9671C15.7782 17.1057 15.5902 17.1836 15.3942 17.1836H3.56776C3.37173 17.1836 3.18372 17.1057 3.04511 16.9671C2.90649 16.8285 2.82861 16.6405 2.82861 16.4444V7.57464C2.82861 7.37861 2.90649 7.1906 3.04511 7.05198C3.18372 6.91337 3.37173 6.83549 3.56776 6.83549H5.04606V6.09634C5.04606 4.92013 5.51331 3.7921 6.34501 2.9604C7.17672 2.12869 8.30475 1.66145 9.48096 1.66145C10.6572 1.66145 11.7852 2.12869 12.6169 2.9604C13.4486 3.7921 13.9159 4.92013 13.9159 6.09634V6.83549ZM12.4376 6.83549V6.09634C12.4376 5.3122 12.1261 4.56018 11.5716 4.00571C11.0171 3.45124 10.2651 3.13974 9.48096 3.13974C8.69682 3.13974 7.9448 3.45124 7.39033 4.00571C6.83586 4.56018 6.52436 5.3122 6.52436 6.09634V6.83549H12.4376ZM8.74181 11.2704V12.7487H10.2201V11.2704H8.74181ZM5.78521 11.2704V12.7487H7.26351V11.2704H5.78521ZM11.6984 11.2704V12.7487H13.1767V11.2704H11.6984Z" fill="#0B4654" fill-opacity="0.5"/>
</svg>
