<svg width="19" height="19" viewBox="0 0 19 19" fill="none" xmlns="http://www.w3.org/2000/svg">
<path d="M15.4396 14.7395C16.2358 13.7816 16.7895 12.6461 17.0539 11.429C17.3184 10.2118 17.2858 8.94891 16.959 7.74703C16.6321 6.54515 16.0206 5.43967 15.1761 4.52411C14.3317 3.60855 13.2791 2.90985 12.1075 2.48711C10.9359 2.06437 9.67973 1.93003 8.44523 2.09545C7.21073 2.26088 6.03423 2.72119 5.01525 3.43747C3.99628 4.15374 3.16481 5.1049 2.59118 6.21048C2.01755 7.31606 1.71864 8.54353 1.71973 9.78907C1.72015 11.5997 2.35821 13.3524 3.52196 14.7395L3.51087 14.7489C3.54968 14.7955 3.59403 14.8354 3.63394 14.8814C3.68383 14.9385 3.73761 14.9923 3.78916 15.0477C3.94438 15.2163 4.10404 15.3781 4.27146 15.53C4.32246 15.5766 4.37512 15.6198 4.42668 15.6642C4.60407 15.8172 4.78646 15.9624 4.9755 16.0977C4.99989 16.1143 5.02206 16.136 5.04646 16.1531V16.1465C6.34483 17.0602 7.89372 17.5505 9.48135 17.5505C11.069 17.5505 12.6179 17.0602 13.9162 16.1465V16.1531C13.9406 16.136 13.9623 16.1143 13.9872 16.0977C14.1757 15.9619 14.3586 15.8172 14.536 15.6642C14.5876 15.6198 14.6402 15.576 14.6912 15.53C14.8587 15.3776 15.0183 15.2163 15.1735 15.0477C15.2251 14.9923 15.2783 14.9385 15.3288 14.8814C15.3681 14.8354 15.413 14.7955 15.4518 14.7484L15.4396 14.7395ZM9.4808 5.35417C9.97419 5.35417 10.4565 5.50048 10.8667 5.77459C11.277 6.0487 11.5967 6.43831 11.7855 6.89415C11.9743 7.34998 12.0237 7.85157 11.9275 8.33548C11.8312 8.81939 11.5936 9.26389 11.2448 9.61277C10.8959 9.96165 10.4514 10.1992 9.96747 10.2955C9.48356 10.3918 8.98198 10.3423 8.52614 10.1535C8.07031 9.96472 7.6807 9.64498 7.40659 9.23474C7.13248 8.8245 6.98617 8.34219 6.98617 7.8488C6.98617 7.18718 7.24899 6.55266 7.71683 6.08483C8.18466 5.617 8.81918 5.35417 9.4808 5.35417ZM5.04978 14.7395C5.0594 14.0116 5.35521 13.3168 5.87321 12.8053C6.39121 12.2938 7.08975 12.0069 7.81771 12.0065H11.1439C11.8718 12.0069 12.5704 12.2938 13.0884 12.8053C13.6064 13.3168 13.9022 14.0116 13.9118 14.7395C12.696 15.8351 11.1174 16.4415 9.4808 16.4415C7.84418 16.4415 6.26559 15.8351 5.04978 14.7395Z" fill="#0B4654" fill-opacity="0.5"/>
</svg>
