<svg width="76" height="76" viewBox="0 0 76 76" fill="none" xmlns="http://www.w3.org/2000/svg">
<path fill-rule="evenodd" clip-rule="evenodd" d="M37.982 0.599121L0.956421 37.875L37.982 75.5835L75.8332 37.579L37.982 0.599121ZM39.3601 5.06199L71.8899 37.0933L46.756 30.2969L39.3601 5.06199ZM5.95466 35.7145L24.61 24.6474L36.4439 5.05037L5.95466 35.7145ZM31.2637 46.451L49.9628 51.3599L37.9912 71.5424L31.2637 46.451ZM36.944 71.4943L5.74351 39.7513L30.1511 46.1589L36.944 71.4943ZM37.3952 73.1771L37.2841 73.2886L37.4253 73.289L37.3952 73.1771ZM71.848 37.9569L52.1081 49.2426L47.086 31.3893L71.848 37.9569ZM44.8434 30.7945L50.0598 49.3387L30.6733 44.2492L25.7049 25.7184L44.8434 30.7945ZM68.6665 42.1376L41.942 68.8516L52.0082 51.7556L68.6665 42.1376ZM4.70295 37.4429L29.5758 43.9715L24.7462 25.7494L4.70295 37.4429ZM44.5736 29.7145L37.5695 4.94448L25.7646 24.7121L44.5736 29.7145Z" fill="url(#paint0_linear_105_113)"/>
<defs>
<linearGradient id="paint0_linear_105_113" x1="-3.48845" y1="30.9577" x2="31.7939" y2="78.2905" gradientUnits="userSpaceOnUse">
<stop stop-color="#2DF3AE"/>
<stop offset="1" stop-color="#0CCBEC"/>
</linearGradient>
</defs>
</svg>
