<svg width="31" height="37" viewBox="0 0 31 37" fill="none" xmlns="http://www.w3.org/2000/svg">
<path fill-rule="evenodd" clip-rule="evenodd" d="M29.3047 8.09686H1.69531C0.775 8.09686 0 8.87186 0 9.79218V27.5687C0 28.489 0.775 29.264 1.69531 29.264H29.3047C30.225 29.264 31 28.489 31 27.5687V9.79218C31 8.82343 30.225 8.09686 29.3047 8.09686ZM28.6266 9.54999L16.275 17.0094C15.7906 17.3 15.1609 17.3 14.6766 17.0094L2.37344 9.54999H28.6266ZM1.45312 27.5203C1.45312 27.6656 1.55 27.7625 1.69531 27.7625H29.3047C29.45 27.7625 29.5469 27.6656 29.5469 27.5203V10.6641L17.05 18.2687C16.5656 18.5594 16.0328 18.7047 15.5 18.7047C14.9672 18.7047 14.4344 18.5594 13.95 18.2687L1.45312 10.6641V27.5203Z" fill="#979797"/>
</svg>
