<svg width="31" height="37" viewBox="0 0 31 37" fill="none" xmlns="http://www.w3.org/2000/svg">
<path fill-rule="evenodd" clip-rule="evenodd" d="M24.3408 11.2518V9.18518C24.3408 4.47777 20.8389 0.459253 16.3037 0.0574016C13.7778 -0.172228 11.3093 0.631476 9.52964 2.29629C7.75002 3.96111 6.71668 6.2574 6.71668 8.72592V11.1944C3.15742 11.6537 0.34446 14.7537 0.34446 18.4278V29.7944C0.287052 33.6407 3.44446 36.7407 7.23335 36.7407H23.7093C27.5556 36.7407 30.6556 33.6407 30.6556 29.7944V18.3704C30.713 14.7537 27.9 11.7111 24.3408 11.2518ZM10.6778 3.61666C12.1704 2.23888 14.1222 1.6074 16.1315 1.77962C19.7482 2.06666 22.5611 5.33888 22.5611 9.18518V11.1944H8.3815V8.78333C8.3815 6.77407 9.24261 4.93703 10.6778 3.61666ZM23.7093 35.0185C26.5796 35.0185 28.9333 32.6648 28.9333 29.7944V18.3704C28.9333 15.3278 26.4074 12.8593 23.25 12.8593H7.6352C4.5352 12.8593 2.00927 15.3852 2.00927 18.4852V29.7944C2.00927 32.6648 4.36298 35.0185 7.23335 35.0185H23.7093Z" fill="#979797"/>
<path d="M15.5 20.6667C15.0408 20.6667 14.6389 21.0685 14.6389 21.5278V23.1352V24.7426V27.9C14.6389 28.3592 15.0408 28.7611 15.5 28.7611C15.9593 28.7611 16.3611 28.3592 16.3611 27.9V24.7426V23.1352V21.5278C16.3611 21.0685 15.9593 20.6667 15.5 20.6667Z" fill="#979797"/>
</svg>
