<svg width="31" height="37" viewBox="0 0 31 37" fill="none" xmlns="http://www.w3.org/2000/svg">
<path fill-rule="evenodd" clip-rule="evenodd" d="M22.4074 13.3611C22.4074 17.2963 19.2129 20.4907 15.2778 20.4907C11.3426 20.4907 8.14813 17.3426 8.14813 13.4074C8.14813 9.47222 11.3426 6.27777 15.2778 6.27777C19.2129 6.27777 22.4074 9.42592 22.4074 13.3611ZM21.0185 13.4074C21.0185 10.213 18.4259 7.66666 15.2778 7.66666C12.1296 7.66666 9.53702 10.1667 9.53702 13.3611C9.53702 16.5555 12.1296 19.1018 15.2778 19.1018C18.4259 19.1018 21.0185 16.6018 21.0185 13.4074Z" fill="#979797"/>
<path d="M29.8611 29.5185C25.8333 26.0926 20.6481 24.2407 15.2778 24.2407C9.90738 24.2407 4.7222 26.0926 0.694418 29.5185C0.416641 29.75 0.370344 30.213 0.601826 30.4907C0.833307 30.7685 1.29627 30.8148 1.57405 30.5833C5.37034 27.3889 10.1852 25.6296 15.2315 25.6296C20.2778 25.6296 25.1389 27.3889 28.8889 30.5833C29.0278 30.6759 29.1666 30.7685 29.3518 30.7685C29.537 30.7685 29.7222 30.6759 29.8611 30.537C30.1852 30.213 30.1389 29.75 29.8611 29.5185Z" fill="#979797"/>
</svg>
